HIERARCHY
ROOT	Character1_Hips
{
	OFFSET	0.000	0.000	0.000
	CHANNELS	6	Xposition	Yposition	Zposition	Yrotation	Xrotation	Zrotation
	JOINT	Character1_LeftUpLeg
	{
		OFFSET	8.100	0.000	-0.000
		CHANNELS	3	Yrotation	Xrotation	Zrotation
		JOINT	Character1_LeftLeg
		{
			OFFSET	-0.000	-43.200	0.000
			CHANNELS	3	Yrotation	Xrotation	Zrotation
			JOINT	Character1_LeftFoot
			{
				OFFSET	0.062	-43.300	0.000
				CHANNELS	3	Yrotation	Xrotation	Zrotation
				End Site
				{
					OFFSET	-0.000	-6.231	13.152
				}
			}
		}
	}
	JOINT	Character1_RightUpLeg
	{
		OFFSET	-8.100	0.000	-0.000
		CHANNELS	3	Yrotation	Xrotation	Zrotation
		JOINT	Character1_RightLeg
		{
			OFFSET	0.000	-43.200	0.000
			CHANNELS	3	Yrotation	Xrotation	Zrotation
			JOINT	Character1_RightFoot
			{
				OFFSET	-0.063	-43.300	0.000
				CHANNELS	3	Yrotation	Xrotation	Zrotation
				End Site
				{
					OFFSET	0.001	-6.231	13.152
				}
			}
		}
	}
	JOINT	Character1_Spine
	{
		OFFSET	0.000	8.484	-3.948
		CHANNELS	3	Yrotation	Xrotation	Zrotation
		JOINT	Character1_Spine1
		{
			OFFSET	0.491	16.019	0.343
			CHANNELS	3	Yrotation	Xrotation	Zrotation
			JOINT	Character1_Spine2
			{
				OFFSET	0.491	16.019	0.343
				CHANNELS	3	Yrotation	Xrotation	Zrotation
				JOINT	Character1_LeftShoulder
				{
					OFFSET	7.531	8.193	2.258
					CHANNELS	3	Yrotation	Xrotation	Zrotation
					JOINT	Character1_LeftArm
					{
						OFFSET	13.460	-0.000	-0.000
						CHANNELS	3	Yrotation	Xrotation	Zrotation
						JOINT	Character1_LeftForeArm
						{
							OFFSET	26.100	-0.000	0.000
							CHANNELS	3	Yrotation	Xrotation	Zrotation
							JOINT	Character1_LeftHand
							{
								OFFSET	28.740	-0.000	-0.000
								CHANNELS	3	Yrotation	Xrotation	Zrotation
								JOINT	Character1_LeftHandIndex1
								{
									OFFSET	8.088	-0.104	2.579
									CHANNELS	3	Yrotation	Xrotation	Zrotation
									JOINT	Character1_LeftHandIndex2
									{
										OFFSET	4.560	0.000	-0.159
										CHANNELS	3	Yrotation	Xrotation	Zrotation
										JOINT	Character1_LeftHandIndex3
										{
											OFFSET	2.805	0.000	-0.098
											CHANNELS	3	Yrotation	Xrotation	Zrotation
											End Site
											{
												OFFSET	1.956	0.000	-0.068
											}
										}
									}
								}
								JOINT	Character1_LeftHandMiddle1
								{
									OFFSET	8.245	-0.104	0.552
									CHANNELS	3	Yrotation	Xrotation	Zrotation
									JOINT	Character1_LeftHandMiddle2
									{
										OFFSET	4.765	0.000	-0.000
										CHANNELS	3	Yrotation	Xrotation	Zrotation
										JOINT	Character1_LeftHandMiddle3
										{
											OFFSET	3.143	0.000	-0.000
											CHANNELS	3	Yrotation	Xrotation	Zrotation
											End Site
											{
												OFFSET	2.006	0.000	-0.000
											}
										}
									}
								}
								JOINT	Character1_LeftHandPinky1
								{
									OFFSET	7.042	-0.546	-3.102
									CHANNELS	3	Yrotation	Xrotation	Zrotation
									JOINT	Character1_LeftHandPinky2
									{
										OFFSET	3.549	-0.000	-0.000
										CHANNELS	3	Yrotation	Xrotation	Zrotation
										JOINT	Character1_LeftHandPinky3
										{
											OFFSET	2.231	-0.000	0.000
											CHANNELS	3	Yrotation	Xrotation	Zrotation
											End Site
											{
												OFFSET	1.667	0.000	0.000
											}
										}
									}
								}
								JOINT	Character1_LeftHandRing1
								{
									OFFSET	7.805	-0.345	-1.412
									CHANNELS	3	Yrotation	Xrotation	Zrotation
									JOINT	Character1_LeftHandRing2
									{
										OFFSET	4.360	0.000	-0.000
										CHANNELS	3	Yrotation	Xrotation	Zrotation
										JOINT	Character1_LeftHandRing3
										{
											OFFSET	2.812	-0.000	-0.000
											CHANNELS	3	Yrotation	Xrotation	Zrotation
											End Site
											{
												OFFSET	1.923	0.000	-0.000
											}
										}
									}
								}
								JOINT	Character1_LeftHandThumb1
								{
									OFFSET	2.107	-0.104	2.823
									CHANNELS	3	Yrotation	Xrotation	Zrotation
									JOINT	Character1_LeftHandThumb2
									{
										OFFSET	3.503	0.000	2.022
										CHANNELS	3	Yrotation	Xrotation	Zrotation
										JOINT	Character1_LeftHandThumb3
										{
											OFFSET	3.070	-0.000	0.000
											CHANNELS	3	Yrotation	Xrotation	Zrotation
											End Site
											{
												OFFSET	2.667	0.000	-0.000
											}
										}
									}
								}
							}
						}
					}
				}
				JOINT	Character1_Neck
				{
					OFFSET	0.491	16.019	0.343
					CHANNELS	3	Yrotation	Xrotation	Zrotation
					End Site
					{
						OFFSET	-0.000	10.452	0.000
					}
				}
				JOINT	Character1_RightShoulder
				{
					OFFSET	-6.549	8.193	2.258
					CHANNELS	3	Yrotation	Xrotation	Zrotation
					JOINT	Character1_RightArm
					{
						OFFSET	-13.460	-0.001	0.000
						CHANNELS	3	Yrotation	Xrotation	Zrotation
						JOINT	Character1_RightForeArm
						{
							OFFSET	-26.100	-0.000	-0.000
							CHANNELS	3	Yrotation	Xrotation	Zrotation
							JOINT	Character1_RightHand
							{
								OFFSET	-28.740	-0.000	-0.000
								CHANNELS	3	Yrotation	Xrotation	Zrotation
								JOINT	Character1_RightHandIndex1
								{
									OFFSET	-8.088	-0.104	2.579
									CHANNELS	3	Yrotation	Xrotation	Zrotation
									JOINT	Character1_RightHandIndex2
									{
										OFFSET	-4.560	-0.000	0.159
										CHANNELS	3	Yrotation	Xrotation	Zrotation
										JOINT	Character1_RightHandIndex3
										{
											OFFSET	-2.805	0.000	0.098
											CHANNELS	3	Yrotation	Xrotation	Zrotation
											End Site
											{
												OFFSET	-1.956	0.000	0.068
											}
										}
									}
								}
								JOINT	Character1_RightHandMiddle1
								{
									OFFSET	-8.245	-0.104	0.552
									CHANNELS	3	Yrotation	Xrotation	Zrotation
									JOINT	Character1_RightHandMiddle2
									{
										OFFSET	-4.762	0.000	0.166
										CHANNELS	3	Yrotation	Xrotation	Zrotation
										JOINT	Character1_RightHandMiddle3
										{
											OFFSET	-3.141	-0.000	0.110
											CHANNELS	3	Yrotation	Xrotation	Zrotation
											End Site
											{
												OFFSET	-2.003	0.000	0.070
											}
										}
									}
								}
								JOINT	Character1_RightHandPinky1
								{
									OFFSET	-7.042	-0.546	-3.102
									CHANNELS	3	Yrotation	Xrotation	Zrotation
									JOINT	Character1_RightHandPinky2
									{
										OFFSET	-3.546	0.000	0.124
										CHANNELS	3	Yrotation	Xrotation	Zrotation
										JOINT	Character1_RightHandPinky3
										{
											OFFSET	-2.229	0.000	0.078
											CHANNELS	3	Yrotation	Xrotation	Zrotation
											End Site
											{
												OFFSET	-1.667	0.000	0.058
											}
										}
									}
								}
								JOINT	Character1_RightHandRing1
								{
									OFFSET	-7.805	-0.345	-1.412
									CHANNELS	3	Yrotation	Xrotation	Zrotation
									JOINT	Character1_RightHandRing2
									{
										OFFSET	-4.357	0.000	0.152
										CHANNELS	3	Yrotation	Xrotation	Zrotation
										JOINT	Character1_RightHandRing3
										{
											OFFSET	-2.810	-0.000	0.098
											CHANNELS	3	Yrotation	Xrotation	Zrotation
											End Site
											{
												OFFSET	-1.921	0.000	0.067
											}
										}
									}
								}
								JOINT	Character1_RightHandThumb1
								{
									OFFSET	-2.107	-0.104	2.823
									CHANNELS	3	Yrotation	Xrotation	Zrotation
									JOINT	Character1_RightHandThumb2
									{
										OFFSET	-3.503	-0.000	2.022
										CHANNELS	3	Yrotation	Xrotation	Zrotation
										JOINT	Character1_RightHandThumb3
										{
											OFFSET	-3.070	-0.000	0.000
											CHANNELS	3	Yrotation	Xrotation	Zrotation
											End Site
											{
												OFFSET	-2.665	-0.000	-0.000
											}
										}
									}
								}
							}
						}
					}
				}
			}
		}
	}
}
MOTION
Frames:	8
Frame Time:	0.010
5.142	88.847	4.137	-88.207	-22.308	39.423	48.127	-64.925	-39.459	-70.839	-30.207	-106.295	140.251	37.535	-3.554	62.712	-42.080	-77.189	58.025	-13.917	102.340	-126.462	15.922	-13.985	-3.106	4.198	-11.412	-7.073	7.736	-23.293	0.000	-0.000	-0.000	-37.508	42.157	-25.452	-79.810	-69.895	38.063	-53.242	-3.372	-13.735	30.214	-16.215	-5.588	358.000	-0.000	-0.000	-0.000	-0.000	0.000	-0.000	0.000	-0.000	-0.004	0.000	0.000	-0.000	-0.000	-0.000	0.000	-0.000	-0.000	0.000	-0.000	0.001	-0.000	-0.000	-0.000	0.000	-0.000	0.000	-0.004	-0.000	0.000	0.000	-0.000	0.000	0.000	-0.000	-0.000	-0.000	-0.000	0.000	0.000	0.000	-0.000	-0.000	-0.000	0.000	42.353	-2.123	3.406	28.397	49.993	13.867	82.420	-51.201	-28.582	33.475	28.253	-11.378	-20.968	-44.585	21.899	358.000	-0.000	0.000	-0.000	0.000	-0.000	-0.000	-0.000	0.000	358.000	0.000	0.000	-0.000	-0.000	0.000	-0.000	-0.000	-0.000	358.000	0.000	0.001	0.000	-0.000	-0.000	-0.000	-0.000	-0.000	358.000	-0.000	0.000	0.000	0.000	0.000	-0.000	-0.000	-0.000	-0.000	0.000	0.000	0.000	-0.000	-0.001	-0.000	0.000	0.000	
5.143	88.847	4.137	-88.206	-22.308	39.421	48.130	-64.926	-39.461	-70.838	-30.207	-106.295	140.251	37.534	-3.552	62.709	-42.081	-77.189	58.026	-13.919	102.337	-126.462	15.923	-13.983	-3.107	4.200	-11.412	-7.076	7.739	-23.293	0.000	-0.000	0.000	-37.509	42.160	-25.448	-79.789	-69.888	38.040	-53.252	-3.376	-13.753	30.207	-16.217	-5.577	358.000	-0.000	-0.000	-0.000	0.000	0.000	0.000	-0.000	-0.000	-0.004	-0.000	-0.000	-0.000	-0.000	0.000	0.000	-0.000	-0.000	0.000	0.000	0.001	0.000	-0.000	0.000	0.000	0.000	0.000	-0.004	-0.000	-0.000	0.000	-0.000	0.000	-0.000	0.000	-0.000	-0.000	-0.000	0.000	0.000	0.000	-0.000	0.000	0.000	0.000	42.345	-2.125	3.405	28.408	49.990	13.881	82.412	-51.205	-28.580	33.476	28.258	-11.372	-21.002	-44.612	21.952	358.000	0.000	-0.000	0.000	0.000	0.000	-0.000	-0.000	0.000	358.000	-0.000	-0.000	-0.000	-0.000	0.000	0.000	0.000	-0.000	358.000	0.000	0.001	-0.000	-0.000	-0.000	-0.000	0.000	0.000	358.000	-0.000	-0.000	0.000	0.000	0.000	0.000	0.000	0.000	-0.000	0.000	-0.000	0.000	-0.000	-0.001	0.000	0.000	0.000	
5.143	88.848	4.137	-88.206	-22.310	39.419	48.126	-64.927	-39.457	-70.836	-30.206	-106.295	140.254	37.533	-3.548	62.702	-42.081	-77.186	58.027	-13.923	102.335	-126.462	15.924	-13.981	-3.108	4.202	-11.411	-7.078	7.744	-23.292	0.000	-0.000	-0.000	-37.514	42.165	-25.450	-79.787	-69.884	38.038	-53.260	-3.381	-13.759	30.196	-16.197	-5.586	358.000	-0.000	-0.000	-0.000	-0.000	-0.000	0.000	-0.000	0.000	-0.004	-0.000	0.000	-0.000	0.000	-0.000	0.000	-0.000	0.000	0.000	-0.000	0.001	-0.000	-0.000	0.000	-0.000	0.000	-0.000	-0.004	-0.000	0.000	0.000	-0.000	-0.000	0.000	-0.000	-0.000	-0.000	-0.000	0.000	0.000	0.000	-0.000	-0.000	-0.000	0.000	42.335	-2.131	3.404	28.405	49.990	13.890	82.419	-51.203	-28.584	33.462	28.268	-11.367	-21.001	-44.623	21.967	358.000	-0.000	0.000	0.000	-0.000	-0.000	-0.000	0.000	-0.000	358.000	0.000	-0.000	0.000	0.000	0.000	0.000	-0.000	-0.000	358.000	0.000	0.001	-0.000	0.000	-0.000	0.000	-0.000	0.000	358.000	-0.000	-0.000	0.000	0.000	0.000	-0.000	0.000	-0.000	0.000	0.000	-0.000	-0.000	-0.000	-0.001	0.000	0.000	0.000	
5.143	88.848	4.137	-88.206	-22.314	39.416	48.116	-64.926	-39.450	-70.835	-30.206	-106.296	140.255	37.530	-3.548	62.695	-42.079	-77.183	58.025	-13.928	102.334	-126.460	15.925	-13.980	-3.109	4.204	-11.410	-7.081	7.746	-23.291	-0.000	0.000	-0.000	-37.522	42.176	-25.457	-79.790	-69.881	38.037	-53.267	-3.383	-13.760	30.190	-16.189	-5.580	358.000	-0.000	-0.000	-0.000	-0.000	-0.000	0.000	-0.000	0.000	-0.004	-0.000	0.000	-0.000	0.000	0.000	0.000	-0.000	-0.000	0.000	-0.000	0.001	-0.000	-0.000	0.000	0.000	-0.000	0.000	-0.004	-0.000	0.000	0.000	-0.000	0.000	0.000	0.000	-0.000	0.000	0.000	0.000	-0.000	0.000	-0.000	-0.000	0.000	0.000	42.337	-2.135	3.405	28.401	49.989	13.889	82.434	-51.214	-28.580	33.441	28.288	-11.364	-20.999	-44.623	21.981	358.000	-0.000	-0.000	-0.000	0.000	-0.000	0.000	0.000	-0.000	358.000	0.000	-0.000	-0.000	-0.000	0.000	-0.000	0.000	-0.000	358.000	0.000	0.001	0.000	-0.000	0.000	-0.000	-0.000	-0.000	358.000	-0.000	-0.000	-0.000	0.000	-0.000	0.000	-0.000	-0.000	-0.000	0.000	-0.000	0.000	0.000	-0.001	-0.000	-0.000	0.000	
5.143	88.849	4.138	-88.203	-22.323	39.409	48.096	-64.927	-39.438	-70.834	-30.204	-106.296	140.257	37.531	-3.546	62.680	-42.076	-77.178	58.019	-13.931	102.334	-126.458	15.927	-13.978	-3.112	4.206	-11.408	-7.087	7.751	-23.287	0.000	0.000	-0.000	-37.525	42.178	-25.460	-79.802	-69.880	38.046	-53.266	-3.382	-13.770	30.187	-16.183	-5.577	358.000	-0.000	-0.000	0.000	-0.000	0.000	-0.000	0.000	-0.000	-0.004	-0.000	0.000	-0.000	0.000	0.000	-0.000	-0.000	-0.000	-0.000	-0.000	0.001	0.000	0.000	0.000	0.000	-0.000	0.000	-0.004	-0.000	0.000	0.000	-0.000	-0.000	0.000	0.000	-0.000	-0.000	-0.000	0.000	0.000	0.000	-0.000	-0.000	0.000	0.000	42.337	-2.140	3.405	28.398	49.988	13.887	82.437	-51.215	-28.571	33.420	28.287	-11.362	-20.985	-44.610	21.982	358.000	-0.000	0.000	0.000	-0.000	-0.000	-0.000	0.000	0.000	358.000	-0.000	-0.000	-0.000	0.000	0.000	-0.000	0.000	-0.000	358.000	0.000	0.001	0.000	-0.000	-0.000	-0.000	-0.000	-0.000	358.000	-0.000	-0.000	0.000	0.000	-0.000	0.000	-0.000	0.000	0.000	-0.000	-0.000	0.000	0.000	-0.001	-0.000	-0.000	0.000	
5.143	88.849	4.138	-88.201	-22.328	39.403	48.090	-64.925	-39.437	-70.839	-30.204	-106.294	140.258	37.533	-3.546	62.672	-42.075	-77.177	58.015	-13.934	102.334	-126.455	15.928	-13.977	-3.115	4.207	-11.407	-7.093	7.753	-23.284	0.000	-0.000	-0.000	-37.528	42.179	-25.462	-79.797	-69.880	38.040	-53.265	-3.383	-13.775	30.191	-16.187	-5.576	358.000	0.000	-0.000	0.000	-0.000	0.000	-0.000	0.000	-0.000	-0.004	-0.000	-0.000	-0.000	0.000	0.000	0.000	-0.000	0.000	-0.000	-0.000	0.001	-0.000	-0.000	-0.000	0.000	-0.000	-0.000	-0.004	0.000	0.000	0.000	-0.000	-0.000	-0.000	-0.000	0.000	-0.000	0.000	-0.000	0.000	0.000	-0.000	-0.000	-0.000	0.000	42.340	-2.145	3.406	28.400	49.985	13.885	82.431	-51.215	-28.556	33.404	28.273	-11.360	-20.965	-44.590	21.975	358.000	-0.000	-0.000	-0.000	-0.000	0.000	-0.000	-0.000	-0.000	358.000	0.000	-0.000	0.000	-0.000	0.000	0.000	0.000	-0.000	358.000	0.000	0.001	-0.000	0.000	0.000	0.000	-0.000	-0.000	358.000	-0.000	-0.000	-0.000	0.000	0.000	-0.000	0.000	-0.000	-0.000	0.000	0.000	0.000	-0.000	-0.001	-0.000	0.000	0.000	
5.142	88.850	4.138	-88.200	-22.331	39.399	48.083	-64.923	-39.430	-70.841	-30.206	-106.293	140.260	37.532	-3.545	62.665	-42.072	-77.175	58.009	-13.938	102.335	-126.457	15.929	-13.978	-3.117	4.208	-11.406	-7.096	7.755	-23.283	0.000	-0.000	0.000	-37.532	42.183	-25.461	-79.799	-69.879	38.033	-53.265	-3.381	-13.773	30.193	-16.184	-5.564	358.000	0.000	-0.000	-0.000	-0.000	0.000	-0.000	0.000	-0.000	-0.004	0.000	-0.000	-0.000	-0.000	-0.000	0.000	0.000	0.000	0.000	0.000	0.001	-0.000	-0.000	0.000	-0.000	0.000	-0.000	-0.004	-0.000	0.000	0.000	-0.000	0.000	0.000	-0.000	-0.000	0.000	0.000	-0.000	-0.000	0.000	-0.000	0.000	-0.000	0.000	42.340	-2.148	3.410	28.410	49.984	13.893	82.421	-51.216	-28.544	33.383	28.246	-11.344	-20.917	-44.570	21.940	358.000	0.000	0.000	-0.000	-0.000	-0.000	-0.000	-0.000	0.000	358.000	0.000	0.000	-0.000	0.000	-0.000	-0.000	-0.000	0.000	358.000	0.000	0.001	-0.000	0.000	0.000	0.000	-0.000	-0.000	358.000	0.000	0.000	0.000	0.000	-0.000	0.000	-0.000	-0.000	-0.000	0.000	0.000	0.000	-0.000	-0.001	0.000	-0.000	0.000	
5.142	88.850	4.138	-88.200	-22.331	39.399	48.083	-64.923	-39.430	-70.841	-30.206	-106.293	140.260	37.532	-3.545	62.665	-42.072	-77.175	58.009	-13.938	102.335	-126.457	15.929	-13.978	-3.117	4.208	-11.406	-7.096	7.755	-23.283	0.000	-0.000	0.000	-37.532	42.183	-25.461	-79.799	-69.879	38.033	-53.265	-3.381	-13.773	30.193	-16.184	-5.564	358.000	0.000	-0.000	-0.000	-0.000	0.000	-0.000	0.000	-0.000	-0.004	0.000	-0.000	-0.000	-0.000	-0.000	0.000	0.000	0.000	0.000	0.000	0.001	-0.000	-0.000	0.000	-0.000	0.000	-0.000	-0.004	-0.000	0.000	0.000	-0.000	0.000	0.000	-0.000	-0.000	0.000	0.000	-0.000	-0.000	0.000	-0.000	0.000	-0.000	0.000	42.340	-2.148	3.410	28.410	49.984	13.893	82.421	-51.216	-28.544	33.383	28.246	-11.344	-20.917	-44.570	21.940	358.000	0.000	0.000	-0.000	-0.000	-0.000	-0.000	-0.000	0.000	358.000	0.000	0.000	-0.000	0.000	-0.000	-0.000	-0.000	0.000	358.000	0.000	0.001	-0.000	0.000	0.000	0.000	-0.000	-0.000	358.000	0.000	0.000	0.000	0.000	-0.000	0.000	-0.000	-0.000	-0.000	0.000	0.000	0.000	-0.000	-0.001	0.000	-0.000	0.000	
